#!OML:ASF F:\VICON\USERDATA\INSTALL\rory3\rory3.ASF
:FULLY-SPECIFIED
:DEGREES
353
root -0.0906509 17.9917 -0.707711 3.20376 -10.0127 1.7085
lowerback -0.420623 -2.22003 -3.51212
upperback 0.226174 -2.95595 2.53161
thorax 0.78055 -1.50483 4.53899
lowerneck -28.238 -0.200512 -8.37144
upperneck 20.3801 2.03395 4.33807
head 11.1049 0.826554 3.32019
rclavicle -1.09332e-014 -6.36111e-015
rhumerus -30.4837 1.56792 -81.792
rradius 32.0829
rwrist 18.4669
rhand -18.2675 8.78159
rfingers 7.12502
rthumb 8.01212 -21.0465
lclavicle -1.09332e-014 -6.36111e-015
lhumerus 21.8323 -14.7592 65.8968
lradius 90.5636
lwrist 6.57565
lhand -31.3528 28.2959
lfingers 7.12502
lthumb -4.62386 58.2254
rfemur -8.93682 8.9746 14.5921
rtibia 25.6545
rfoot -16.867 -3.90008
rtoes 4.62203
lfemur 0.0958245 -2.32885 -22.2002
ltibia 11.7273
lfoot -10.1779 6.28666
ltoes -13.3087
354
root -0.086503 17.9937 -0.720124 3.27042 -10.0377 1.60112
lowerback -0.558038 -2.23786 -3.29261
upperback 0.399876 -2.97784 2.47763
thorax 1.02429 -1.52269 4.34839
lowerneck -28.2262 -0.153438 -8.32763
upperneck 20.5883 2.07216 4.36707
head 11.1783 0.845619 3.33623
rclavicle -6.11263e-015 5.56597e-015
rhumerus -30.2292 1.43239 -81.8999
rradius 32.088
rwrist 18.4524
rhand -18.1507 8.82159
rfingers 7.12502
rthumb 8.1249 -21.0022
lclavicle -6.11263e-015 5.56597e-015
lhumerus 21.1517 -14.8288 66.553
lradius 90.3156
lwrist 6.93012
lhand -31.1142 28.3749
lfingers 7.12502
lthumb -4.39342 58.3093
rfemur -9.04127 8.94954 14.6837
rtibia 25.6276
rfoot -16.7895 -3.89262
rtoes 4.25815
lfemur -0.0183437 -2.29734 -22.0908
ltibia 11.7701
lfoot -10.1317 6.2978
ltoes -13.4883
355
root -0.0835132 17.9944 -0.732114 3.3165 -10.1393 1.69039
lowerback -0.725257 -2.23992 -3.27796
upperback 0.594863 -2.97576 2.35683
thorax 1.31116 -1.53017 4.20312
lowerneck -28.1844 -0.13655 -8.2301
upperneck 20.6771 2.06823 4.30341
head 11.2067 0.840491 3.29784
rclavicle -8.89561e-015 2.38542e-015
rhumerus -29.8996 1.21868 -82.012
rradius 31.9575
rwrist 18.5848
rhand -18.1326 8.86091
rfingers 7.12502
rthumb 8.14236 -20.9622
lclavicle -8.89561e-015 2.38542e-015
lhumerus 20.5893 -14.9167 67.0327
lradius 90.0521
lwrist 7.33603
lhand -30.8142 28.5823
lfingers 7.12502
lthumb -4.10373 58.5225
rfemur -9.18533 8.91447 14.5462
rtibia 25.6267
rfoot -16.6946 -3.83426
rtoes 4.17321
lfemur -0.113561 -2.3308 -22.1997
ltibia 11.8044
lfoot -10.1026 6.38688
ltoes -13.4866
356
root -0.0815661 17.9963 -0.740874 3.31812 -10.2321 1.769
lowerback -0.738789 -2.20725 -3.30089
upperback 0.691269 -2.93058 2.27552
thorax 1.41033 -1.51091 4.13021
lowerneck -27.9909 -0.139906 -8.10043
upperneck 20.7976 2.04423 4.11062
head 11.2242 0.809813 3.20087
rclavicle -3.57812e-014 3.10104e-014
rhumerus -29.8269 0.971126 -82.0259
rradius 31.9335
rwrist 18.6679
rhand -18.0748 8.68479
rfingers 7.12502
rthumb 8.19814 -21.1362
lclavicle -3.57812e-014 3.10104e-014
lhumerus 19.9589 -15.1872 67.5428
lradius 89.7535
lwrist 7.52565
lhand -30.6841 28.7779
lfingers 7.12502
lthumb -3.97804 58.7205
rfemur -9.27044 8.95891 14.4407
rtibia 25.6517
rfoot -16.5952 -3.80411
rtoes 4.24331
lfemur -0.130801 -2.36455 -22.2934
ltibia 11.797
lfoot -10.0664 6.45831
ltoes -13.4847
357
root -0.0799917 17.9975 -0.752108 3.33335 -10.2219 1.74342
lowerback -0.609096 -2.19746 -3.28345
upperback 0.667658 -2.92095 2.27872
thorax 1.31159 -1.50353 4.12987
lowerneck -27.7208 -0.119765 -8.00683
upperneck 21.0335 2.07122 3.88371
head 11.2683 0.791163 3.10748
rclavicle -1.35671e-014 -3.65764e-014
rhumerus -29.9848 0.787233 -81.9805
rradius 32.0378
rwrist 18.6379
rhand -18.0365 8.45799
rfingers 7.12502
rthumb 8.23513 -21.3615
lclavicle -1.35671e-014 -3.65764e-014
lhumerus 18.9997 -15.4649 68.2774
lradius 89.422
lwrist 7.40928
lhand -30.7457 28.7719
lfingers 7.12502
lthumb -4.03761 58.7134
rfemur -9.35262 9.00773 14.4679
rtibia 25.7083
rfoot -16.5933 -3.81733
rtoes 4.7025
lfemur -0.14654 -2.30325 -22.2525
ltibia 11.6712
lfoot -9.97363 6.38134
ltoes -13.4651
358
root -0.0766036 17.9987 -0.763295 3.34906 -10.217 1.759
lowerback -0.437371 -2.21839 -3.32037
upperback 0.639113 -2.95314 2.30609
thorax 1.19241 -1.51727 4.18606
lowerneck -27.6059 -0.0991897 -8.01116
upperneck 21.3651 2.13574 3.72646
head 11.3719 0.78838 3.0673
rclavicle 6.26172e-015 1.59028e-015
rhumerus -30.1188 0.740638 -81.9177
rradius 32.144
rwrist 18.6646
rhand -18.0664 8.55051
rfingers 7.12502
rthumb 8.20626 -21.2701
lclavicle 6.26172e-015 1.59028e-015
lhumerus 17.8383 -15.4939 69.2045
lradius 89.0829
lwrist 7.1104
lhand -30.7174 28.3503
lfingers 7.12502
lthumb -4.01027 58.2923
rfemur -9.43565 8.97937 14.4388
rtibia 25.74
rfoot -16.5496 -3.83418
rtoes 4.47599
lfemur -0.173951 -2.30219 -22.2667
ltibia 11.5556
lfoot -9.86541 6.37138
ltoes -13.2203
359
root -0.0740409 17.9999 -0.772396 3.35171 -10.2653 1.88187
lowerback -0.336738 -2.24064 -3.4569
upperback 0.660483 -2.98419 2.28811
thorax 1.16719 -1.53377 4.2474
lowerneck -27.4914 -0.0797948 -8.11727
upperneck 21.5818 2.19262 3.74245
head 11.4285 0.800532 3.10426
rclavicle 3.97072e-014 -1.66979e-014
rhumerus -30.1694 0.725387 -81.8999
rradius 32.1829
rwrist 18.746
rhand -18.1188 8.85503
rfingers 7.12502
rthumb 8.15572 -20.9676
lclavicle 3.97072e-014 -1.66979e-014
lhumerus 16.7771 -15.4807 70.0455
lradius 88.7754
lwrist 6.73431
lhand -30.7961 27.8195
lfingers 7.12502
lthumb -4.08629 57.7601
rfemur -9.5125 8.95393 14.2808
rtibia 25.7357
rfoot -16.5158 -3.79471
rtoes 4.42541
lfemur -0.246075 -2.33695 -22.4065
ltibia 11.5626
lfoot -9.81253 6.42777
ltoes -13.1753
360
root -0.073167 18.0008 -0.783235 3.3769 -10.3338 1.8846
lowerback -0.272091 -2.22019 -3.46483
upperback 0.679403 -2.9583 2.26483
thorax 1.14695 -1.52064 4.23062
lowerneck -27.2913 -0.060301 -8.2413
upperneck 21.7709 2.22117 3.85657
head 11.459 0.812509 3.17428
rclavicle -3.62782e-014 5.56597e-015
rhumerus -30.2231 0.526763 -81.8913
rradius 32.1309
rwrist 18.9597
rhand -18.1739 8.94755
rfingers 7.12502
rthumb 8.10252 -20.8771
lclavicle -3.62782e-014 5.56597e-015
lhumerus 15.8633 -15.6455 70.6996
lradius 88.4137
lwrist 6.5423
lhand -30.9321 27.3374
lfingers 7.12502
lthumb -4.21757 57.2754
rfemur -9.58557 8.97972 14.2622
rtibia 25.7192
rfoot -16.4812 -3.77498
rtoes 4.30018
lfemur -0.32782 -2.32829 -22.4116
ltibia 11.5926
lfoot -9.78349 6.48213
ltoes -13.4587
361
root -0.0711846 18.0037 -0.79353 3.46521 -10.3894 1.77065
lowerback -0.230405 -2.19308 -3.33866
upperback 0.660054 -2.9241 2.27323
thorax 1.09418 -1.50103 4.17116
lowerneck -27.1567 -0.047592 -8.38046
upperneck 22.0746 2.24696 3.99124
head 11.5446 0.821234 3.25868
rclavicle 3.46879e-014 1.03368e-014
rhumerus -30.3111 0.33398 -81.8591
rradius 32.1042
rwrist 19.0783
rhand -18.1787 8.8066
rfingers 7.12502
rthumb 8.09783 -21.0182
lclavicle 3.46879e-014 1.03368e-014
lhumerus 14.9456 -15.8106 71.3725
lradius 87.9742
lwrist 6.29596
lhand -30.7847 27.5706
lfingers 7.12502
lthumb -4.07523 57.5114
rfemur -9.68627 8.99318 14.3642
rtibia 25.6966
rfoot -16.4164 -3.74375
rtoes 4.36212
lfemur -0.42373 -2.32201 -22.2868
ltibia 11.6185
lfoot -9.75348 6.49906
ltoes -13.6097
362
root -0.0679195 18.0063 -0.800776 3.52017 -10.4563 1.77719
lowerback -0.212403 -2.1776 -3.33804
upperback 0.673503 -2.90381 2.26476
thorax 1.09545 -1.49108 4.16289
lowerneck -27.0254 -0.0326786 -8.36025
upperneck 22.2461 2.28168 3.87035
head 11.5865 0.81617 3.2184
rclavicle -2.45499e-014 1.82882e-014
rhumerus -30.2771 0.250902 -81.8402
rradius 32.0066
rwrist 19.0602
rhand -18.2066 8.53445
rfingers 7.12502
rthumb 8.0709 -21.2914
lclavicle -2.45499e-014 1.82882e-014
lhumerus 14.0923 -15.898 72.0612
lradius 87.5375
lwrist 5.80647
lhand -30.496 28.7922
lfingers 7.12502
lthumb -3.79648 58.7382
rfemur -9.76195 8.9411 14.3284
rtibia 25.6508
rfoot -16.3002 -3.66506
rtoes 4.4655
lfemur -0.537643 -2.30474 -22.2995
ltibia 11.7373
lfoot -9.79067 6.52622
ltoes -13.548
